<svg fill="none" height="28" viewBox="0 0 88 28" width="88" xmlns="http://www.w3.org/2000/svg">
<g clip-path="url(#clip0)">
<path d="M38.1335 27.596H31.0049L35.4636 0.491211H42.5919L38.1335 27.596Z" fill="#00579F"/>
<path d="M63.9747 1.15396C62.5686 0.60553 60.3385 0 57.5809 0C50.5412 0 45.5838 3.69067 45.5534 8.96721C45.495 12.8602 49.1027 15.0225 51.8011 16.3206C54.559 17.647 55.4965 18.5127 55.4965 19.6951C55.4685 21.5109 53.2679 22.3479 51.2156 22.3479C48.3695 22.3479 46.8445 21.9163 44.527 20.9061L43.5884 20.473L42.5908 26.5575C44.2628 27.3063 47.3431 27.9709 50.5412 28C58.021 28 62.8906 24.3664 62.9483 18.7435C62.9768 15.6579 61.0717 13.2937 56.9646 11.3617C54.4713 10.1215 52.9444 9.2853 52.9444 8.01637C52.9736 6.8628 54.2359 5.68125 57.0504 5.68125C59.3678 5.62338 61.0706 6.17104 62.3605 6.71908L63.0052 7.0069L63.9747 1.15396V1.15396Z" fill="#00579F"/>
<path d="M73.45 17.9937C74.0371 16.4366 76.2961 10.41 76.2961 10.41C76.2665 10.4679 76.882 8.82414 77.234 7.81506L77.7322 10.1506C77.7322 10.1506 79.0821 16.6385 79.3753 17.9937C78.2612 17.9937 74.8581 17.9937 73.45 17.9937ZM82.2494 0.491211H76.7354C75.035 0.491211 73.7432 0.981 73.0095 2.7401L62.4209 27.5956H69.9007C69.9007 27.5956 71.1322 24.2502 71.3969 23.5297C72.2174 23.5297 79.4938 23.5297 80.5494 23.5297C80.7541 24.4813 81.4 27.5956 81.4 27.5956H88.0004L82.2494 0.491211V0.491211Z" fill="#00579F"/>
<path d="M25.0511 0.491211L18.0698 18.9741L17.307 15.2255C16.0163 10.9002 11.9684 6.20082 7.45117 3.86417L13.8458 27.5672H21.3841L32.589 0.491211H25.0511V0.491211Z" fill="#00579F"/>
<path d="M11.5866 0.491211H0.117335L0 1.03887C8.94673 3.28815 14.872 8.70994 17.3064 15.2267L14.8131 2.76961C14.4026 1.03849 13.1412 0.548315 11.5866 0.491211Z" fill="#FAA61A"/>
</g>
<defs>
<clipPath id="clip0">
<rect fill="white" height="28" width="88"/>
</clipPath>
</defs>
</svg>
