<svg width="117" height="35" viewBox="0 0 117 35" fill="none" xmlns="http://www.w3.org/2000/svg">
<g clip-path="url(#clip0)">
<path d="M8.48276 27.9579L7.59421 27.8526C4.16084 27.4596 1.65157 25.3754 0.599518 22.0351C-0.40277 18.8632 -0.125541 14.6947 1.2606 12.0982C2.21313 10.3088 3.64192 8.94035 5.19867 8.30877C5.51855 8.18246 6.08722 7.99298 6.45686 7.89474C7.72216 7.55789 8.46144 7.50877 11.9375 7.50877H15.1291V0H20.034V28L14.3685 27.993L8.48276 27.9579ZM15.1291 17.6842V11.2982H13.1246C10.5869 11.3053 9.65565 11.3684 8.83107 11.614C6.85493 12.2035 5.83132 13.2912 5.29819 15.3544C5.16313 15.8947 5.1418 16.1474 5.1418 17.6491C5.1418 19.0316 5.16313 19.4386 5.27686 19.9298C5.78156 22.2246 6.96867 23.5228 8.93059 23.9298C9.46372 24.0421 9.91866 24.0632 12.3426 24.0632L15.1291 24.0702V17.6842ZM30.4123 27.9298C28.3295 27.7193 26.2609 26.814 24.6829 25.4316C23.8725 24.7228 23.5953 24.4211 23.0053 23.6C22.1594 22.4281 21.6333 21.1509 21.3064 19.5088C20.8372 17.1228 21.4343 14.2596 22.8347 12.1825C24.6118 9.54386 27.4125 7.91579 30.6042 7.64912C33.6253 7.39649 36.4544 8.39298 38.6083 10.4561C40.0655 11.8386 40.8759 13.207 41.4445 15.214C41.736 16.2596 41.8071 16.9263 41.7644 18.1754C41.7218 19.3193 41.5441 20.1965 41.1033 21.4246C40.4707 23.1719 38.9281 25.1018 37.2932 26.1965C36.6321 26.6386 35.3953 27.2281 34.5707 27.5018C33.4262 27.8807 31.6776 28.0561 30.4123 27.9298ZM35.3739 23.5579C35.5374 23.4526 35.7365 23.2421 35.8147 23.0877C35.9568 22.814 35.9639 22.7088 35.9426 20.2877L35.9213 17.7754L35.7222 17.5228C35.6156 17.3825 35.4308 17.214 35.3171 17.1579L35.118 17.0526L35.0896 15.207L35.0683 13.3614L34.855 12.9474C34.6133 12.4842 34.1939 12.1193 33.7674 12C33.611 11.9579 32.6017 11.9298 31.3008 11.9298C28.8271 11.9298 28.7702 11.9439 28.2513 12.4561C27.7253 12.9754 27.6897 13.1368 27.6542 15.207L27.6258 17.0456L27.3556 17.2211C27.1992 17.3193 27.0215 17.5228 26.9362 17.6982C26.7941 17.993 26.787 18.1053 26.787 20.3719C26.787 22.9614 26.7941 23.0246 27.2064 23.4035C27.6115 23.7825 27.6044 23.7825 31.4856 23.7684L35.0754 23.7544L35.3739 23.5579ZM29.1327 15.2702C29.1327 14.3649 29.1541 13.5719 29.1754 13.5088C29.2891 13.2281 29.5379 13.193 31.4998 13.193C33.2912 13.193 33.3907 13.2 33.5684 13.3404L33.7532 13.4807V16.9123H29.1327V15.2702ZM49.2851 27.9228C47.1739 27.6632 45.6314 26.3579 45.1338 24.4211C44.8637 23.3684 44.8424 22.786 44.8424 16.9684V11.2982H41.0749V7.50877H44.8424V0H49.7472V7.50877H55.505V11.2982H49.7472V16.1263C49.7543 20.9895 49.7898 22.0912 49.996 22.786C50.1452 23.2912 50.5007 23.6702 51.0125 23.8737C51.3892 24.014 51.5456 24.0281 53.4649 24.0561L55.505 24.0842V28L52.6474 27.993C51.0693 27.986 49.5624 27.9579 49.2851 27.9228Z" fill="#B91217"/>
<path d="M56.9268 21.2544V7.5H61.6041C68.9471 7.50702 70.1982 7.6193 71.9042 8.4193C72.8354 8.85438 74.122 9.95614 74.7902 10.8825C75.1741 11.4158 75.7214 12.4263 75.9489 13.0228C76.8659 15.4298 76.9654 19.1632 76.1764 21.7807C75.9418 22.5526 75.302 23.921 74.8471 24.6088C74.4348 25.2263 73.4752 26.1947 72.8567 26.6088C72.2383 27.0228 71.2147 27.5 70.6105 27.6614C69.4802 27.9702 68.8902 28.0123 65.336 28.0403L61.9027 28.0754V35.0088H56.9268V21.2544ZM67.234 24.0263C69.4305 23.6965 70.4114 22.8895 71.1365 20.7982C71.4422 19.914 71.5772 18.9105 71.5772 17.5702C71.5772 16.2088 71.4564 15.4298 71.1081 14.5526C70.4825 12.9526 69.6011 12.1597 67.9022 11.6825C67.0278 11.4298 66.1677 11.3667 63.8788 11.3597H61.9027V24.1316H64.2342C65.9047 24.1316 66.7506 24.1035 67.234 24.0263ZM98.4968 34.8965C98.4613 34.8684 98.44 33.9842 98.44 32.9246V31.0088H103.722C109.685 31.0018 110.275 30.9737 110.929 30.6579C111.697 30.286 111.896 29.921 112.003 28.6789L112.06 28.0614H108.697C104.269 28.0614 103.359 27.9491 101.923 27.2123C100.672 26.5737 99.8261 25.7175 99.1792 24.4474C98.5182 23.1281 98.44 22.0263 98.44 13.4509V7.57018H103.487V13.9772L103.558 20.9737C103.75 22.5316 104.184 23.3807 104.987 23.7807C105.598 24.0895 106.039 24.1316 109.159 24.1316H112.088V7.57018H117L116.972 17.9772L116.794 29.1491C116.588 30.2088 116.389 30.8684 116.111 31.4719C115.834 32.0614 115.23 32.8895 114.782 33.2965C114.086 33.921 112.82 34.4965 111.782 34.6579L110.844 34.8123C110.332 34.8895 98.5679 34.9737 98.4968 34.8965ZM83.1568 28.0123C81.1594 27.8298 80.3917 27.5702 79.2543 26.707C78.4653 26.1035 77.6976 24.9246 77.3919 23.8158C77.1644 22.9737 77.1218 21.1912 77.3137 20.2719C77.5412 19.1702 77.9535 18.314 78.6856 17.4158C79.2543 16.7211 80.413 16.0474 81.4722 15.7877C82.6024 15.514 83.0929 15.486 87.8342 15.4509L92.4689 15.4158V15.2263C92.4689 15.1281 92.4333 14.7 92.3978 14.2719C92.3338 13.6123 92.2912 13.4228 92.0779 12.9947C91.5448 11.9281 90.7629 11.5351 88.9147 11.4228C88.346 11.3947 85.7159 11.3597 83.0715 11.3597H78.252V7.57018H84.4648C90.6705 7.57018 91.5519 7.59825 92.6821 7.82281C93.9759 8.08947 94.5943 8.40526 95.4544 9.25438C96.4567 10.2439 96.9045 11.093 97.2102 12.5877C97.3097 13.079 97.331 14.0544 97.3524 20.6088L97.3808 28.0614L90.3932 28.0474C86.5476 28.0474 83.2919 28.0263 83.1568 28.0123ZM92.4689 21.7386V19.3526L88.3318 19.3737C84.5785 19.4018 84.152 19.4158 83.7966 19.5281C82.7374 19.8719 82.1617 20.8263 82.2541 22.0825C82.3465 23.2474 82.9507 23.8368 84.28 24.0614C84.4648 24.0895 86.3841 24.1175 88.545 24.1246L92.4689 24.1316V21.7386Z" fill="#231F20"/>
</g>
<defs>
<clipPath id="clip0">
<rect width="117" height="35" fill="white"/>
</clipPath>
</defs>
</svg>
