<svg fill="none" height="28" viewBox="0 0 46 28" width="46" xmlns="http://www.w3.org/2000/svg">
<path d="M43.9577 22.6752V22.2242H44.1521V22.1309H43.6895V22.2242H43.8722V22.6752H43.9577ZM44.8559 22.6752V22.1309H44.7159L44.5526 22.5197L44.3893 22.1309H44.2493V22.6752H44.3504V22.2631L44.5021 22.6169H44.6071L44.7587 22.2631V22.6752H44.8559Z" fill="#F79E1B"/>
<path d="M29.3885 2.99414H15.9121V25.005H29.3885V2.99414Z" fill="#FF5F00"/>
<path d="M17.3003 14.0013C17.2986 11.8818 17.779 9.78978 18.7053 7.88343C19.6315 5.97708 20.9792 4.30639 22.6465 2.99781C20.5815 1.37497 18.1017 0.365829 15.4903 0.0857106C12.8789 -0.194408 10.2415 0.265801 7.87929 1.41374C5.51712 2.56168 3.52556 4.35103 2.13222 6.57729C0.738891 8.80355 0 11.3769 0 14.0032C0 16.6296 0.738891 19.2029 2.13222 21.4292C3.52556 23.6555 5.51712 25.4448 7.87929 26.5927C10.2415 27.7407 12.8789 28.2009 15.4903 27.9208C18.1017 27.6407 20.5815 26.6315 22.6465 25.0087C20.9787 23.6997 19.6307 22.0284 18.7044 20.1213C17.7782 18.2142 17.298 16.1214 17.3003 14.0013V14.0013Z" fill="#EB001B"/>
<path d="M45.295 14.0009C45.295 16.6275 44.5559 19.201 43.1623 21.4273C41.7687 23.6537 39.7769 25.443 37.4144 26.5908C35.0519 27.7385 32.4142 28.1984 29.8027 27.9179C27.1912 27.6374 24.7113 26.6278 22.6465 25.0044C24.3131 23.6947 25.6604 22.0235 26.5869 20.1171C27.5134 18.2106 27.9948 16.1187 27.9948 13.999C27.9948 11.8793 27.5134 9.78737 26.5869 7.88092C25.6604 5.97446 24.3131 4.30332 22.6465 2.99356C24.7113 1.37022 27.1912 0.36059 29.8027 0.0800695C32.4142 -0.200451 35.0519 0.259462 37.4144 1.40724C39.7769 2.55501 41.7687 4.34433 43.1623 6.57067C44.5559 8.79701 45.295 11.3705 45.295 13.9971V14.0009Z" fill="#F79E1B"/>
</svg>
